<?xml version="1.0" encoding="UTF-8" standalone="no"?><!DOCTYPE svg PUBLIC "-//W3C//DTD SVG 1.1//EN" "http://www.w3.org/Graphics/SVG/1.1/DTD/svg11.dtd"><svg width="100%" height="100%" viewBox="0 0 2084 2084" version="1.1" xmlns="http://www.w3.org/2000/svg" xmlns:xlink="http://www.w3.org/1999/xlink" xml:space="preserve" xmlns:serif="http://www.serif.com/" style="fill-rule:evenodd;clip-rule:evenodd;stroke-linejoin:round;stroke-miterlimit:2;"><g><path d="M1834.24,114.094l-1720.64,1719.57l135.486,135.571l1720.64,-1719.57l-135.487,-135.571Z"/><path d="M1834.24,114.094l-1720.64,1719.57l135.486,135.571l1720.64,-1719.57l-135.487,-135.571Zm-0.002,5.893l129.596,129.676c0,0 -1714.75,1713.68 -1714.75,1713.68c0,0 -129.596,-129.676 -129.596,-129.676c78.88,-78.831 1714.75,-1713.68 1714.75,-1713.68l0,-0Z" style="fill:#fff;"/><clipPath id="_clip1"><path d="M1208.33,-251.291l-1050.1,1049.95l361.055,361.105l1050.1,-1049.95l-361.055,-361.105Z"/></clipPath><g clip-path="url(#_clip1)"><path d="M671.726,1312.23l-307.219,-307.261l516,-515.929l-416.92,4.317l1104.63,-384.711l-384.864,1104.58l4.375,-416.92l-516,515.929Z"/><path d="M671.726,1312.23l-307.219,-307.261l516,-515.929l-416.92,4.317l1104.63,-384.711l-384.864,1104.58l4.375,-416.92l-516,515.929Zm0,-5.893l-301.326,-301.368c-0,0 513.053,-512.982 513.053,-512.982c1.198,-1.197 1.551,-3 0.895,-4.561c-0.655,-1.561 -2.191,-2.57 -3.884,-2.552l-391.489,4.053c0,0 973.222,-338.946 1072.47,-373.51c-0,-0 -373.66,1072.42 -373.66,1072.42c0,0 4.108,-391.488 4.108,-391.488c0.018,-1.693 -0.991,-3.229 -2.552,-3.885c-1.56,-0.656 -3.363,-0.302 -4.561,0.895l-513.053,512.982Z" style="fill:#fff;"/></g><clipPath id="_clip2"><path d="M968.639,2212.5l1002.19,-1001.72l-363.11,-363.284l-1002.2,1001.72l363.111,363.283Z"/></clipPath><g clip-path="url(#_clip2)"><path d="M1454.42,694.123l308.967,309.114l-464.873,464.652l419.365,-4.271l-1111.17,386.779l387.308,-1110.99l-4.471,419.363l464.874,-464.652Z"/><path d="M1454.42,694.123l308.967,309.114l-464.873,464.652l419.365,-4.271l-1111.17,386.779l387.308,-1110.99l-4.471,419.363l464.874,-464.652Zm-0.001,5.892l303.076,303.221c-0,-0 -461.927,461.706 -461.927,461.706c-1.197,1.197 -1.552,3 -0.896,4.561c0.656,1.561 2.191,2.57 3.884,2.553l393.934,-4.012c0,-0 -1079.01,375.584 -1079.01,375.584c31.889,-91.474 322.784,-925.9 376.098,-1078.83c-0,0 -4.2,393.932 -4.2,393.932c-0.018,1.693 0.99,3.229 2.551,3.885c1.561,0.657 3.363,0.304 4.561,-0.893l461.927,-461.707Z" style="fill:#fff;"/></g></g></svg>